<svg width="1312" height="1312" viewBox="0 0 1312 1312" fill="none" xmlns="http://www.w3.org/2000/svg">
<g clip-path="url(#clip0_7_130)">
<path d="M656 75C335.024 75 75 335.21 75 656C75 976.789 335.024 1237 656 1237C976.976 1237 1237 976.976 1237 656C1237 335.024 976.789 75 656 75ZM710.428 1100H601.572C588.711 1100 578.459 1089.56 578.459 1076.88C578.459 1064.21 588.711 1053.59 601.572 1053.59H710.428C723.103 1053.59 733.541 1064.02 733.541 1076.88C733.541 1089.75 723.103 1100 710.428 1100ZM859.546 945.475H452.454C439.593 945.475 429.341 935.223 429.341 922.362C429.341 909.5 439.593 899.248 452.454 899.248H859.546C872.221 899.248 882.659 909.5 882.659 922.362C882.659 935.223 872.221 945.475 859.546 945.475ZM1045.94 791.138H266.057C253.196 791.138 242.944 780.7 242.944 768.025C242.944 755.35 253.196 744.725 266.057 744.725H1045.94C1058.62 744.725 1069.06 755.163 1069.06 768.025C1069.06 780.886 1058.62 791.138 1045.94 791.138ZM1094.22 656H217.78C179.755 656 149.932 622.635 155.151 584.983C189.634 339.311 400.822 150.304 656 150.304C911.178 150.304 1122.37 339.311 1156.85 584.983C1162.07 622.635 1132.06 656 1094.22 656Z" fill="white"/>
</g>
<defs>
<clipPath id="clip0_7_130">
<rect width="1162" height="1162" fill="white" transform="translate(75 75)"/>
</clipPath>
</defs>
</svg>
