<svg xmlns:xlink="http://www.w3.org/1999/xlink"  xmlns="http://www.w3.org/2000/svg" xlink="http://www.w3.org/1999/xlink" viewBox="0 0 32 32" id="svg4105279121"><path d="M 16 25.717 C 16 29.187 18.917 32.11 22.123 30.782 L 22.123 30.782 C 24.064 29.978 25.828 28.799 27.314 27.314 C 28.799 25.828 29.978 24.064 30.782 22.123 L 30.782 22.123 C 32.11 18.917 29.187 16 25.717 16 L 24 16 C 19.582 16 16 19.582 16 24 Z" fill="var(--token-8b9f614d-f7ba-4746-b108-cfa9412778fd, rgb(255,255,255)) /* {&quot;name&quot;:&quot;base/dark&quot;} */"></path><path d="M 16 6.283 C 16 2.813 18.917 -0.11 22.123 1.218 L 22.123 1.218 C 24.064 2.022 25.828 3.201 27.314 4.686 C 28.799 6.172 29.978 7.936 30.782 9.877 L 30.782 9.877 C 32.11 13.083 29.187 16 25.717 16 L 24 16 C 19.582 16 16 12.418 16 8 Z" fill="var(--token-8b9f614d-f7ba-4746-b108-cfa9412778fd, rgb(255,255,255)) /* {&quot;name&quot;:&quot;base/dark&quot;} */"></path><path d="M 16 25.717 C 16 29.187 13.083 32.11 9.877 30.782 L 9.877 30.782 C 7.936 29.978 6.172 28.799 4.686 27.314 C 3.201 25.828 2.022 24.064 1.218 22.123 L 1.218 22.123 C -0.11 18.917 2.813 16 6.283 16 L 8 16 C 12.418 16 16 19.582 16 24 Z" fill="var(--token-8b9f614d-f7ba-4746-b108-cfa9412778fd, rgb(255,255,255)) /* {&quot;name&quot;:&quot;base/dark&quot;} */"></path><path d="M 16 6.283 C 16 2.813 13.083 -0.11 9.877 1.218 L 9.877 1.218 C 7.936 2.022 6.172 3.201 4.686 4.686 C 3.201 6.172 2.022 7.936 1.218 9.877 L 1.218 9.877 C -0.11 13.083 2.813 16 6.283 16 L 8 16 C 12.418 16 16 12.418 16 8 Z" fill="var(--token-8b9f614d-f7ba-4746-b108-cfa9412778fd, rgb(255,255,255)) /* {&quot;name&quot;:&quot;base/dark&quot;} */"></path></svg>